<svg width="328" height="328" xmlns="http://www.w3.org/2000/svg" xmlns:xlink="http://www.w3.org/1999/xlink" xml:space="preserve" overflow="hidden"><g transform="translate(-431 -173)"><path d="M595.191 281.705C620.611 281.707 641.219 261.102 641.221 235.682 641.223 210.263 620.617 189.655 595.198 189.653 569.779 189.651 549.171 210.256 549.169 235.675 549.169 235.678 549.169 235.68 549.169 235.682 549.171 261.099 569.775 281.703 595.191 281.705Z"/><path d="M687.11 337.13C686.375 330.701 683.105 324.833 678.025 320.826 664.683 310.605 649.424 303.17 633.154 298.959 620.847 295.191 608.052 293.252 595.181 293.205 588.703 293.243 582.238 293.803 575.85 294.879 575.604 294.91 575.361 294.954 575.115 294.992L574.5 295.091 574.5 295.091C573.728 295.218 572.956 295.334 572.187 295.508L560.85 297.965 556.802 299.075 556.802 299.123C540.876 303.811 525.851 311.144 512.358 320.815 510.068 322.658 508.118 324.888 506.597 327.403 506.57 327.447 506.546 327.498 506.519 327.543 506.177 328.117 505.835 328.694 505.541 329.292 505.193 329.99 504.882 330.707 504.609 331.438 504.438 331.896 504.308 332.364 504.168 332.825 504.096 333.067 504.004 333.296 503.939 333.542L503.881 333.764C503.836 333.925 503.792 334.086 503.751 334.246L472.755 451.328C469.451 463.14 476.347 475.394 488.158 478.699 499.97 482.004 512.224 475.107 515.529 463.296 515.585 463.095 515.638 462.894 515.689 462.692L533.312 396.108C533.319 396.059 533.364 396.025 533.413 396.031 533.462 396.038 533.496 396.083 533.49 396.132L533.49 484.344 656.5 484.344 656.5 435.192C674.544 430.255 687.107 413.924 687.25 395.217L687.25 339.234ZM571.083 395.22C571.085 394.471 571.128 393.723 571.213 392.979 572.257 381.801 580.03 372.399 590.811 369.27L564.968 307.671 574.469 305.522C575.843 305.223 577.236 305.022 578.638 304.921L605.165 368.177 677 368.177 677 395.22C677 411.654 663.296 426.069 647.664 426.069L571.083 426.069Z"/></g></svg>